<mxfile host="app.diagrams.net" agent="Mozilla/5.0 (Windows NT 10.0; Win64; x64) AppleWebKit/537.36 (KHTML, like Gecko) Chrome/129.0.0.0 Safari/537.36 Edg/129.0.0.0" version="24.7.16">
  <diagram id="C5RBs43oDa-KdzZeNtuy" name="Exercise1.12">
    <mxGraphModel dx="377" dy="234" grid="1" gridSize="10" guides="1" tooltips="1" connect="1" arrows="1" fold="1" page="1" pageScale="1" pageWidth="827" pageHeight="1169" math="0" shadow="0">
      <root>
        <mxCell id="WIyWlLk6GJQsqaUBKTNV-0" />
        <mxCell id="WIyWlLk6GJQsqaUBKTNV-1" parent="WIyWlLk6GJQsqaUBKTNV-0" />
        <mxCell id="Ci1fB9h60IIG0PQ7zm6q-15" value="" style="edgeStyle=none;curved=1;rounded=0;orthogonalLoop=1;jettySize=auto;html=1;fontSize=12;startSize=8;endSize=8;entryX=0.5;entryY=0;entryDx=0;entryDy=0;fontFamily=Times New Roman;" parent="WIyWlLk6GJQsqaUBKTNV-1" source="Ci1fB9h60IIG0PQ7zm6q-16" target="Ci1fB9h60IIG0PQ7zm6q-18" edge="1">
          <mxGeometry relative="1" as="geometry">
            <mxPoint x="320" y="250" as="targetPoint" />
          </mxGeometry>
        </mxCell>
        <mxCell id="Ci1fB9h60IIG0PQ7zm6q-16" value="Start" style="rounded=1;whiteSpace=wrap;html=1;fillColor=#d5e8d4;strokeColor=#82b366;fontFamily=Times New Roman;" parent="WIyWlLk6GJQsqaUBKTNV-1" vertex="1">
          <mxGeometry x="260" y="120" width="120" height="60" as="geometry" />
        </mxCell>
        <mxCell id="Ci1fB9h60IIG0PQ7zm6q-17" value="" style="edgeStyle=none;curved=1;rounded=0;orthogonalLoop=1;jettySize=auto;html=1;fontSize=12;startSize=8;endSize=8;fontFamily=Times New Roman;" parent="WIyWlLk6GJQsqaUBKTNV-1" source="Ci1fB9h60IIG0PQ7zm6q-18" target="Ci1fB9h60IIG0PQ7zm6q-20" edge="1">
          <mxGeometry relative="1" as="geometry" />
        </mxCell>
        <mxCell id="Ci1fB9h60IIG0PQ7zm6q-18" value="Read A, B, C" style="shape=parallelogram;perimeter=parallelogramPerimeter;whiteSpace=wrap;html=1;fixedSize=1;fillColor=#dae8fc;strokeColor=#6c8ebf;fontFamily=Times New Roman;" parent="WIyWlLk6GJQsqaUBKTNV-1" vertex="1">
          <mxGeometry x="260" y="220" width="120" height="60" as="geometry" />
        </mxCell>
        <mxCell id="Ci1fB9h60IIG0PQ7zm6q-19" value="" style="edgeStyle=none;curved=1;rounded=0;orthogonalLoop=1;jettySize=auto;html=1;fontSize=12;startSize=8;endSize=8;fontFamily=Times New Roman;" parent="WIyWlLk6GJQsqaUBKTNV-1" source="Ci1fB9h60IIG0PQ7zm6q-20" target="Ci1fB9h60IIG0PQ7zm6q-23" edge="1">
          <mxGeometry relative="1" as="geometry" />
        </mxCell>
        <mxCell id="Ci1fB9h60IIG0PQ7zm6q-20" value="C = A" style="whiteSpace=wrap;html=1;fontFamily=Times New Roman;" parent="WIyWlLk6GJQsqaUBKTNV-1" vertex="1">
          <mxGeometry x="260" y="320" width="120" height="60" as="geometry" />
        </mxCell>
        <mxCell id="Ci1fB9h60IIG0PQ7zm6q-21" value="" style="edgeStyle=none;curved=1;rounded=0;orthogonalLoop=1;jettySize=auto;html=1;fontSize=12;startSize=8;endSize=8;fontFamily=Times New Roman;" parent="WIyWlLk6GJQsqaUBKTNV-1" target="Ci1fB9h60IIG0PQ7zm6q-25" edge="1">
          <mxGeometry relative="1" as="geometry">
            <mxPoint x="490" y="220" as="sourcePoint" />
          </mxGeometry>
        </mxCell>
        <mxCell id="Ci1fB9h60IIG0PQ7zm6q-22" value="" style="edgeStyle=none;curved=1;rounded=0;orthogonalLoop=1;jettySize=auto;html=1;fontSize=12;startSize=8;endSize=8;fontFamily=Times New Roman;" parent="WIyWlLk6GJQsqaUBKTNV-1" source="Ci1fB9h60IIG0PQ7zm6q-23" target="Ci1fB9h60IIG0PQ7zm6q-28" edge="1">
          <mxGeometry relative="1" as="geometry" />
        </mxCell>
        <mxCell id="Ci1fB9h60IIG0PQ7zm6q-23" value="A = B" style="whiteSpace=wrap;html=1;fontFamily=Times New Roman;" parent="WIyWlLk6GJQsqaUBKTNV-1" vertex="1">
          <mxGeometry x="430" y="320" width="120" height="60" as="geometry" />
        </mxCell>
        <mxCell id="Ci1fB9h60IIG0PQ7zm6q-24" value="" style="edgeStyle=orthogonalEdgeStyle;rounded=0;orthogonalLoop=1;jettySize=auto;html=1;fontSize=12;startSize=8;endSize=8;exitX=1;exitY=0.5;exitDx=0;exitDy=0;entryX=0.5;entryY=0;entryDx=0;entryDy=0;fontFamily=Times New Roman;" parent="WIyWlLk6GJQsqaUBKTNV-1" source="Ci1fB9h60IIG0PQ7zm6q-25" target="Ci1fB9h60IIG0PQ7zm6q-27" edge="1">
          <mxGeometry relative="1" as="geometry">
            <mxPoint x="590" y="180" as="sourcePoint" />
            <mxPoint x="610" y="150" as="targetPoint" />
          </mxGeometry>
        </mxCell>
        <mxCell id="Ci1fB9h60IIG0PQ7zm6q-25" value="Print A, Print B" style="shape=parallelogram;perimeter=parallelogramPerimeter;whiteSpace=wrap;html=1;fixedSize=1;fillColor=#dae8fc;strokeColor=#6c8ebf;fontFamily=Times New Roman;" parent="WIyWlLk6GJQsqaUBKTNV-1" vertex="1">
          <mxGeometry x="422.5" y="120" width="135" height="60" as="geometry" />
        </mxCell>
        <mxCell id="Ci1fB9h60IIG0PQ7zm6q-26" value="cho A = 10&lt;div&gt;B= 20&lt;/div&gt;" style="whiteSpace=wrap;html=1;aspect=fixed;strokeWidth=5;fontFamily=Times New Roman;" parent="WIyWlLk6GJQsqaUBKTNV-1" vertex="1">
          <mxGeometry x="120" y="200" width="80" height="80" as="geometry" />
        </mxCell>
        <mxCell id="Ci1fB9h60IIG0PQ7zm6q-27" value="End" style="rounded=1;whiteSpace=wrap;html=1;fillColor=#d5e8d4;strokeColor=#82b366;fontFamily=Times New Roman;" parent="WIyWlLk6GJQsqaUBKTNV-1" vertex="1">
          <mxGeometry x="580" y="220" width="120" height="60" as="geometry" />
        </mxCell>
        <mxCell id="Ci1fB9h60IIG0PQ7zm6q-28" value="B = C" style="whiteSpace=wrap;html=1;fontFamily=Times New Roman;" parent="WIyWlLk6GJQsqaUBKTNV-1" vertex="1">
          <mxGeometry x="430" y="220" width="120" height="60" as="geometry" />
        </mxCell>
        <mxCell id="Ci1fB9h60IIG0PQ7zm6q-29" value="Exercise 1.12" style="rounded=0;whiteSpace=wrap;html=1;strokeWidth=5;fontFamily=Times New Roman;" parent="WIyWlLk6GJQsqaUBKTNV-1" vertex="1">
          <mxGeometry x="140" y="400" width="260" height="60" as="geometry" />
        </mxCell>
        <mxCell id="m0sHVh4Hql_XcBxDjian-0" value="&lt;b&gt;Step 1:&lt;/b&gt; Start&lt;div&gt;&lt;b&gt;Step 2:&lt;/b&gt; đọc giá trị A, B, C&amp;nbsp;&lt;/div&gt;&lt;div&gt;&lt;b&gt;step 3:&lt;/b&gt; Gán lần lược C = A, A = B, B =C&lt;/div&gt;&lt;div&gt;&lt;b&gt;Step 4:&lt;/b&gt; In kết quả A, B sau khi thay đổi&lt;/div&gt;" style="whiteSpace=wrap;html=1;verticalAlign=top;align=left;strokeWidth=5;" vertex="1" parent="WIyWlLk6GJQsqaUBKTNV-1">
          <mxGeometry x="565" y="310" width="150" height="150" as="geometry" />
        </mxCell>
      </root>
    </mxGraphModel>
  </diagram>
</mxfile>
